HIERARCHY
ROOT Hips
{
	OFFSET 0.000000 0.000000 0.000000 
	CHANNELS 6 Xposition Yposition Zposition Yrotation Zrotation Xrotation 
	JOINT Lumbar
	{
		OFFSET 0.000000 0.000000 0.000000 
		CHANNELS 3 Zrotation Xrotation Yrotation
		JOINT Neck
		{
			OFFSET 0.000000 0.445665 0.000000 
			CHANNELS 3 Zrotation Xrotation Yrotation
			End Site
			{
				OFFSET 0.000000 0.227535 0.000000 
			}
		}
		JOINT RightShoulder
		{
			OFFSET 0.019635 0.377685 0.194865 
			CHANNELS 3 Zrotation Xrotation Yrotation
			JOINT RightElbow
			{
				OFFSET 0.000000 -0.243375 0.000000 
				CHANNELS 2 Zrotation Yrotation
				JOINT RightWrist
				{
					OFFSET 0.000000 -0.264825 0.000000 
					CHANNELS 2 Zrotation Xrotation
					End Site
					{
						OFFSET 0.006600 -0.176220 0.000990 
					}
				}
			}
		}
		JOINT LeftShoulder
		{
			OFFSET 0.019635 0.377685 -0.194865 
			CHANNELS 3 Zrotation Xrotation Yrotation
			JOINT LeftElbow
			{
				OFFSET 0.000000 -0.243375 0.000000 
				CHANNELS 2 Zrotation Yrotation
				JOINT LeftWrist
				{
					OFFSET 0.000000 -0.264825 0.000000 
					CHANNELS 2 Zrotation Xrotation
					End Site
					{
						OFFSET 0.006600 -0.176220 -0.000990 
					}
				}
			}
		}
	}
	JOINT RightHip
	{
		OFFSET 0.052140 -0.069960 0.075570 
		CHANNELS 3 Zrotation Xrotation Yrotation
		JOINT RightKnee
		{
			OFFSET 0.000000 -0.402270 0.000000 
			CHANNELS 1 Zrotation
			JOINT RightAnkle
			{
				OFFSET 0.000000 -0.404085 0.000000 
				CHANNELS 3 Zrotation Xrotation Yrotation
				End Site
				{
					OFFSET 0.204105 -0.089430 0.008415 
				}
			}
		}
	}
	JOINT LeftHip
	{
		OFFSET 0.052140 -0.069960 -0.075570 
		CHANNELS 3 Zrotation Xrotation Yrotation
		JOINT LeftKnee
		{
			OFFSET 0.000000 -0.402270 0.000000 
			CHANNELS 1 Zrotation
			JOINT LeftAnkle
			{
				OFFSET 0.000000 -0.404085 0.000000 
				CHANNELS 3 Zrotation Xrotation Yrotation
				End Site
				{
					OFFSET 0.204105 -0.089430 -0.008415 
				}
			}
		}
	}
}
MOTION
Frames: 28
Frame Time: 0.02
0.00396 -0.00033 -0.00022 19.8675 -34.59503 -1.55983 57.20434 -0.87506 1.54741 -4.78841 -1.50254 -0.14134 142.13789 -80.79843 -71.30618 10.81038 83.83871 -1.72067 -6.01787 160.0569 75.97975 72.13308 10.10014 -83.60783 -2.37696 10.44338 46.45472 0.34194 -0.43629 -18.53468 -8.16814 -5.58219 -3.73529 52.75343 -0.67359 -2.84991 -24.30442 -9.28984 5.81846 3.90674
0.00278 -0.00025 0.0003 19.80589 -34.58804 -1.57002 57.1196 -0.83133 1.59398 -4.80698 -1.49171 -0.14181 141.76314 -80.79091 -71.82225 10.82323 83.85569 -1.67488 -6.00537 159.79116 76.02023 72.59124 10.07565 -83.6014 -2.3248 10.41093 46.55869 0.25511 -0.96231 -18.57862 -8.14229 -5.54727 -3.70918 52.82361 -0.49035 -2.11909 -24.29982 -9.24462 5.76981 3.87614
0.0016 -0.00018 0.00083 19.74436 -34.58099 -1.5802 57.03493 -0.7877 1.64051 -4.82568 -1.48089 -0.14229 141.3884 -80.78339 -72.33805 10.83599 83.87262 -1.62917 -5.99285 159.52514 76.06058 73.04982 10.05095 -83.59487 -2.27265 10.37836 46.66248 0.16849 -1.48697 -18.62249 -8.1165 -5.51242 -3.68314 52.89368 -0.30753 -1.38993 -24.29523 -9.19952 5.72126 3.84561
0.00043 -0.00011 0.00135 19.68292 -34.57401 -1.59036 56.95042 -0.7441 1.68696 -4.84421 -1.47009 -0.14276 141.01468 -80.77588 -72.85271 10.8488 83.88956 -1.58352 -5.9804 159.26013 76.10093 73.50686 10.02652 -83.58853 -2.22062 10.346 46.76614 0.08192 -2.01141 -18.6663 -8.09072 -5.4776 -3.65711 52.96366 -0.12484 -0.66127 -24.29065 -9.15444 5.67275 3.8151
-0.00074 -3e-05 0.00187 19.62146 -34.5671 -1.60053 56.86588 -0.70042 1.73342 -4.86257 -1.45929 -0.14319 140.64123 -80.76842 -73.36725 10.86169 83.90655 -1.53779 -5.96793 158.99555 76.14141 73.96282 10.00234 -83.58211 -2.16865 10.31376 46.86993 -0.00483 -2.53712 -18.71016 -8.06489 -5.44273 -3.63103 53.03374 0.05824 0.06883 -24.28605 -9.10924 5.62415 3.78453
-0.00192 4e-05 0.0024 19.5598 -34.55978 -1.61074 56.78096 -0.65692 1.78008 -4.88202 -1.44842 -0.1438 140.26371 -80.76077 -73.88571 10.87417 83.92335 -1.49212 -5.9553 158.72639 76.18152 74.42684 9.97653 -83.57519 -2.11614 10.28045 46.97376 -0.09118 -3.05951 -18.75407 -8.03921 -5.40792 -3.60506 53.10377 0.24048 0.796 -24.28148 -9.06435 5.57573 3.75407
-0.00308 0.00011 0.00292 19.49858 -34.55331 -1.62085 56.69693 -0.61308 1.82629 -4.89918 -1.43771 -0.14404 139.89522 -80.75344 -74.39541 10.88753 83.94053 -1.44644 -5.94312 158.46739 76.2223 74.87413 9.95419 -83.56995 -2.0647 10.24953 47.07733 -0.17824 -3.588 -18.79778 -8.01324 -5.37302 -3.57889 53.17381 0.4242 1.52818 -24.27686 -9.0189 5.52701 3.72343
-0.00426 0.00019 0.00344 19.43697 -34.54601 -1.63107 56.612 -0.56958 1.87291 -4.91856 -1.42683 -0.14463 139.51762 -80.74593 -74.91376 10.89994 83.95733 -1.40066 -5.93033 158.19784 76.26251 75.33687 9.92837 -83.56195 -2.01242 10.21603 47.18123 -0.26465 -4.11089 -18.84178 -7.98755 -5.33821 -3.55291 53.24386 0.60657 2.25587 -24.27229 -8.97395 5.47855 3.69295
-0.00546 0.00025 0.00396 19.37481 -34.53787 -1.64135 56.52624 -0.52635 1.92012 -4.94026 -1.41581 -0.14562 139.13161 -80.73774 -75.44087 10.91174 83.97378 -1.35514 -5.91757 157.9198 76.30184 75.8189 9.89931 -83.55534 -1.95852 10.18084 47.28525 -0.35028 -4.62708 -18.88574 -7.96216 -5.30345 -3.52713 53.31388 0.78734 2.97799 -24.26774 -8.92965 5.43044 3.66268
-0.00655 0.00035 0.0045 19.31557 -34.53507 -1.65107 56.44604 -0.48115 1.9642 -4.94743 -1.4058 -0.14424 138.80215 -80.7321 -75.91217 10.92868 83.99259 -1.30929 -5.90696 157.70381 76.34568 76.19122 9.89196 -83.55504 -1.91216 10.15974 47.38775 -0.44043 -5.18226 -18.92876 -7.9349 -5.26825 -3.50009 53.38394 0.97748 3.73194 -24.26298 -8.88174 5.38041 3.63125
-0.00787 0.00038 0.005 19.25037 -34.52068 -1.66209 56.35364 -0.44037 2.01467 -4.98599 -1.39354 -0.1479 138.34834 -80.72195 -76.5045 10.93373 84.00623 -1.26338 -5.89032 157.3486 76.38036 76.79394 9.83688 -83.5323 -1.85101 10.10619 47.49394 -0.52105 -5.65483 -18.97449 -7.91167 -5.23409 -3.47578 53.454 1.14771 4.41876 -24.25872 -8.84137 5.33436 3.60224
-0.00982 0.00024 0.0054 19.16687 -34.47663 -1.67563 56.23103 -0.40988 2.08445 -5.10549 -1.3761 -0.16517 137.57968 -80.6924 -77.40221 10.91366 84.00526 -1.22468 -5.86986 156.67234 76.38664 78.04125 9.66616 -83.52635 -1.73874 9.9829 47.6067 -0.57557 -5.90265 -19.02217 -7.89894 -5.20183 -3.45849 53.52337 1.26368 4.91919 -24.25526 -8.82257 5.29992 3.5801
-0.01203 3e-05 0.00576 19.07781 -34.42043 -1.69061 56.09536 -0.38429 2.16018 -5.2575 -1.35623 -0.18754 136.67377 -80.65984 -78.42383 10.87966 83.99795 -1.18533 -5.84137 155.84291 76.38429 79.51512 9.44528 -83.48612 -1.61297 9.82211 47.72395 -0.62071 -6.06778 -19.07391 -7.89034 -5.17075 -3.444 53.59286 1.35947 5.35226 -24.25241 -8.81124 5.26938 3.56036
-0.01414 -0.00016 0.00614 18.99247 -34.36848 -1.70566 55.96382 -0.35747 2.23217 -5.39798 -1.33686 -0.20772 135.82294 -80.63299 -79.4096 10.84789 83.99542 -1.14046 -5.80777 155.04638 76.38807 80.8805 9.23657 -83.40682 -1.501 9.66755 47.8413 -0.6699 -6.26872 -19.12695 -7.88029 -5.13982 -3.42858 53.66274 1.46439 5.8181 -24.24962 -8.7959 5.23658 3.53935
-0.01613 -0.0003 0.00652 18.90177 -34.32225 -1.71784 55.84072 -0.3259 2.30906 -5.52469 -1.32007 -0.22739 135.03336 -80.58695 -80.32001 10.83585 83.98999 -1.1169 -5.8096 154.41299 76.38264 82.28009 9.0701 -83.54667 -1.35909 9.56401 47.94907 -0.71923 -6.47447 -19.16537 -7.86862 -5.10622 -3.41182 53.73074 1.56991 6.27628 -24.24534 -8.78301 5.20573 3.51903
-0.01846 -0.00057 0.00688 18.82133 -34.26078 -1.73612 55.6959 -0.30608 2.3765 -5.68796 -1.29726 -0.24932 134.04514 -80.58122 -81.40321 10.77632 83.98267 -1.05286 -5.73765 153.39287 76.39416 83.64908 8.80694 -83.23637 -1.27329 9.33848 48.07853 -0.76696 -6.65373 -19.23691 -7.86106 -5.0782 -3.39836 53.80267 1.6688 6.73247 -24.2444 -8.76697 5.17188 3.49791
-0.02159 -0.00117 0.00721 18.76694 -34.16409 -1.7728 55.50335 -0.31165 2.42188 -5.94265 -1.25893 -0.27632 132.86453 -80.67635 -83.02684 10.61728 84.0278 -0.84775 -5.44597 151.4216 76.45744 84.95598 8.26452 -81.56607 -1.37901 8.84925 48.26164 -0.80436 -6.75279 -19.38448 -7.8659 -5.06748 -3.39472 53.88614 1.75959 7.21596 -24.25166 -8.73904 5.12769 3.47345
-0.02505 -0.00191 0.00752 18.72368 -34.05191 -1.81532 55.28769 -0.32993 2.45652 -6.23328 -1.21447 -0.30539 131.42362 -80.81263 -84.78737 10.4068 84.06154 -0.61103 -5.08272 149.04349 76.53827 86.18686 7.6328 -79.46629 -1.5404 8.23036 48.46768 -0.84179 -6.83257 -19.56799 -7.87441 -5.06195 -3.39407 53.97372 1.84344 7.69608 -24.26243 -8.70803 5.0806 3.44824
-0.02839 -0.00259 0.00785 18.67775 -33.94405 -1.85375 55.07668 -0.34627 2.49245 -6.50847 -1.17253 -0.33345 129.89671 -80.93944 -86.44303 10.19992 84.06271 -0.40355 -4.76527 146.81007 76.60827 87.43037 7.05599 -77.64673 -1.64819 7.62413 48.66623 -0.88485 -6.93988 -19.74447 -7.87982 -5.05256 -3.39112 54.05858 1.92696 8.16793 -24.27217 -8.67923 5.03547 3.42368
-0.03162 -0.00323 0.00813 18.62176 -33.84656 -1.89782 54.88998 -0.34672 2.54371 -6.78105 -1.13186 -0.36198 129.24782 -81.03378 -88.34539 10.0714 84.21983 -0.11851 -4.39548 144.77458 76.68705 88.86794 6.41011 -75.47134 -1.85469 7.19653 48.85138 -0.90459 -6.96758 -19.88165 -7.89116 -5.04942 -3.39213 54.14584 2.02438 8.68157 -24.27953 -8.6469 4.98752 3.39775
-0.03516 -0.004 0.00853 18.58918 -33.7248 -1.93209 54.64725 -0.38308 2.56045 -7.06716 -1.08685 -0.38995 126.68464 -81.19726 -89.68668 9.77345 84.05349 -0.00601 -4.11279 142.19012 76.75554 89.7629 5.8961 -73.93001 -1.89443 6.3859 49.07129 -0.97199 -7.15447 -20.10937 -7.8913 -5.03468 -3.38571 54.2306 2.09161 9.10478 -24.29269 -8.62157 4.94499 3.37467
-0.0394 -0.00506 0.00926 18.62017 -33.53283 -1.93317 54.25636 -0.51648 2.48399 -7.38145 -1.03351 -0.41587 119.1324 -81.60736 -90.14911 8.97486 82.96554 -0.21111 -4.13378 138.55161 76.75294 90.23682 5.69776 -74.29323 -1.23315 4.38025 49.36904 -1.17975 -7.81235 -20.57598 -7.85659 -4.98469 -3.35669 54.29459 2.07677 9.31029 -24.32078 -8.61217 4.9155 3.3578
-0.04394 -0.00624 0.01013 18.67366 -33.31853 -1.92526 53.81 -0.68518 2.37324 -7.70783 -0.97555 -0.44112 109.63166 -82.06967 -89.9356 8.01928 81.56049 -0.61606 -4.23826 134.30937 76.7421 90.0074 5.65029 -75.3007 -0.43817 2.02299 49.70321 -1.43363 -8.6262 -21.13251 -7.81092 -4.92312 -3.32026 54.35844 2.03247 9.4203 -24.35454 -8.61058 4.89197 3.3441
-0.04837 -0.00738 0.01096 18.71631 -33.11885 -1.92428 53.38825 -0.83732 2.27842 -8.02904 -0.91844 -0.46663 100.8556 -82.46961 -89.53689 7.16135 80.31836 -1.04638 -4.27222 130.10474 76.76592 89.35515 5.578 -75.98121 0.13858 -0.05922 50.02904 -1.661 -9.35197 -21.64981 -7.77236 -4.86824 -3.28815 54.43062 2.00142 9.55281 -24.38595 -8.60817 4.86751 3.33019
-0.05271 -0.0085 0.01168 18.76356 -32.89894 -1.91066 52.96735 -0.99293 2.18158 -8.351 -0.86676 -0.49243 92.70047 -83.04922 -91.11705 6.17745 78.98751 -1.00967 -4.43354 126.87894 76.67821 91.67512 5.311 -76.79006 1.35192 -2.62286 50.32138 -1.91281 -10.151 -22.1629 -7.72538 -4.80791 -3.25237 54.46755 1.96865 9.76978 -24.41688 -8.59443 4.83572 3.31124
-0.0573 -0.00967 0.01267 18.80438 -32.71705 -1.92218 52.53288 -1.14846 2.08115 -8.67273 -0.80226 -0.51741 82.85402 -83.24754 -88.54463 5.43578 77.77748 -1.96268 -4.35996 121.4844 76.79755 87.83883 5.49519 -77.49138 1.30477 -4.27776 50.69133 -2.12341 -10.833 -22.70385 -7.69277 -4.75564 -3.22213 54.57845 1.93511 9.79276 -24.44964 -8.60582 4.82027 3.30332
-0.06253 -0.01094 0.01435 18.8399 -32.6371 -1.99622 52.06576 -1.30429 1.97757 -8.99982 -0.70788 -0.54055 68.28766 -82.54225 -73.52138 5.25837 76.87943 -5.8672 -3.53346 110.19124 77.6861 65.42556 6.81314 -77.73018 -2.54017 -3.2305 51.26971 -2.22036 -11.16822 -23.31527 -7.70687 -4.73264 -3.21176 54.88801 1.88442 9.2636 -24.49003 -8.68774 4.8518 3.32729
-0.06799 -0.01225 0.01631 18.86504 -32.59769 -2.0972 51.58881 -1.45715 1.87191 -9.32438 -0.60009 -0.56283 52.18553 -81.42147 -54.54291 5.35526 76.13002 -10.71226 -2.48237 96.75754 78.74541 37.14925 8.59283 -77.84221 -7.60588 -1.27526 51.92342 -2.27257 -11.37733 -23.94884 -7.73494 -4.71747 -3.20677 55.27278 1.83773 8.54938 -24.53136 -8.79416 4.89901 3.3619
